PathFileType	4	(X/Y/Z)	Run_300 02
DataRate	CameraRate	NumFrames	NumMarkers	Units	OrigDataRate	OrigDataStartFrame	OrigNumFrames
120	120	5	42	mm	120	195	128
Frame#	Time	LASI			RASI			LPSI			RPSI			RTH1			RTH2			RTH3			LTH1			LTH2			LTH3			RTB1			RTB2			LTB1			LTB2			LTB3			RCAL			RTOE			RMT5			LCAL			LTOE			LMT5			LACR			RACR			CLAV			C7			RUA1			RUA2			RUA3			RLEL			RMEL			LUA1			LUA2			LUA3			LLEL			LMEL			RFAsuperior			RFAradius			RFAulna			LFAsuperior			LFAradius			LFAulna			RTB3			
		X1	Y1	Z1	X2	Y2	Z2	X3	Y3	Z3	X4	Y4	Z4	X5	Y5	Z5	X6	Y6	Z6	X7	Y7	Z7	X8	Y8	Z8	X9	Y9	Z9	X10	Y10	Z10	X11	Y11	Z11	X12	Y12	Z12	X13	Y13	Z13	X14	Y14	Z14	X15	Y15	Z15	X16	Y16	Z16	X17	Y17	Z17	X18	Y18	Z18	X19	Y19	Z19	X20	Y20	Z20	X21	Y21	Z21	X22	Y22	Z22	X23	Y23	Z23	X24	Y24	Z24	X25	Y25	Z25	X26	Y26	Z26	X27	Y27	Z27	X28	Y28	Z28	X29	Y29	Z29	X30	Y30	Z30	X31	Y31	Z31	X32	Y32	Z32	X33	Y33	Z33	X34	Y34	Z34	X35	Y35	Z35	X36	Y36	Z36	X37	Y37	Z37	X38	Y38	Z38	X39	Y39	Z39	X40	Y40	Z40	X41	Y41	Z41	X42	Y42	Z42	

169	2.533333	909.688436	1075.687133	-465.637968	915.324522	1091.447	-208.725992	735.293801	1124.246585	-368.752996	733.724934	1121.150091	-284.968873	900.6419969999999	928.04212	-154.275994	1004.206716	857.462428	-166.914078	994.2067950000001	729.471195	-198.852849	788.424994	875.247137	-509.09544	803.895741	743.478331	-494.181795	702.544579	655.630626	-469.68171	1107.285888	478.03643	-289.367121	1064.977023	417.000471	-223.825519	650.309745	419.022687	-404.359361	572.116719	364.081033	-450.003069	525.4372049999999	261.503555	-381.020007	896.498784	200.593316	-319.297172	1118.170158	127.762164	-329.234965	1043.070211	110.677077	-242.549505	357.34226	212.505767	-360.978682	538.520532	68.423991	-331.364194	462.875376	72.006106	-419.032382	985.850154	1549.37358	-511.7032	894.487427	1577.672947	-190.910606	978.448845	1505.291598	-298.444192	864.747485	1589.936453	-371.917995	813.829757	1522.809569	-116.094044	765.951155	1444.592762	-116.725506	699.479293	1489.116657	-116.033196	591.529522	1397.413152	-78.557024	582.96388	1396.455359	-161.326347	985.805537	1455.591333	-583.064342	994.128784	1384.34464	-572.3118940000001	903.725531	1368.0366	-606.076083	925.265945	1205.942384	-652.5588279999999	859.951493	1192.304915	-592.094467	655.897198	1309.825144	-67.56631899999999	750.859416	1168.054619	-139.483059	718.649274	1158.931145	-74.859917	1006.702278	1229.009642	-599.539087	1086.383191	1288.331709	-445.963885	1118.636264	1229.106897	-472.388782	1048.037034	321.570676	-297.805349	
170	2.541667	913.319924	1078.756245	-466.152188	917.5622540000001	1095.560762	-209.51455	739.169998	1128.584131	-369.930853	737.290075	1126.102229	-285.774097	900.980612	930.724843	-154.290738	1003.031184	857.7535779999999	-166.130387	991.228404	729.954509	-200.513826	786.595867	880.696858	-509.854187	798.183036	748.616448	-495.194557	694.914034	663.597521	-469.57683	1114.792495	476.983752	-289.50256	1077.198783	412.376347	-224.415797	638.556881	427.278957	-405.547353	559.331675	373.70513	-451.095637	513.3036080000001	269.891234	-383.236591	927.097297	183.717248	-320.932968	1153.72663	128.481142	-333.609895	1080.738786	104.032983	-246.833965	347.882427	226.296901	-362.112677	517.15843	68.788757	-332.152817	442.303007	77.86786600000001	-420.383727	987.337455	1554.65414	-509.605601	894.48371	1581.744326	-190.489542	978.916094	1509.512244	-297.382383	865.787774	1593.524217	-371.202648	812.717565	1528.627232	-116.842571	764.413002	1450.611216	-117.510982	698.048642	1495.435766	-120.296548	588.815703	1404.704549	-83.16692999999999	582.51199	1402.822461	-165.981885	988.271796	1461.66177	-581.397869	996.285374	1390.349571	-570.907787	906.858068	1375.006697	-606.690289	927.129194	1212.180862	-652.800657	860.570544	1199.092379	-593.155737	652.693841	1317.023541	-70.39115200000001	748.6802269999999	1174.185693	-139.511135	715.257639	1165.125767	-75.496537	1007.576128	1235.803706	-598.619132	1084.952599	1296.278081	-444.425918	1117.530288	1236.688993	-469.977039	1068.180108	316.159778	-298.792232	
171	2.55	917.055435	1081.572216	-466.929857	919.689732	1098.602797	-210.643456	742.634099	1132.511458	-371.12671	741.342383	1130.085761	-286.925945	901.201741	932.192407	-154.568028	1001.689127	856.830235	-165.593713	987.720646	729.21813	-201.982228	785.404603	885.935532	-510.789952	793.490363	753.495781	-496.308305	688.712912	671.160892	-469.146414	1120.972696	475.221298	-289.81594	1088.510776	407.493679	-225.166199	628.357928	435.136728	-406.464816	548.043577	383.005058	-451.729218	502.400543	278.086018	-385.007478	957.329773	167.827523	-322.185843	1187.556521	131.328014	-337.447484	1117.576814	99.721259	-250.657272	340.157418	240.339247	-363.28701	496.636716	70.081777	-333.230355	422.547322	84.66374500000001	-421.346855	988.424138	1559.334287	-507.584572	894.453345	1585.239223	-189.790441	979.35226	1513.262834	-296.249206	866.7504740000001	1596.532795	-370.30331	811.700013	1533.7764	-117.474963	763.190249	1455.861211	-117.931407	696.995104	1500.722555	-124.284067	586.709558	1410.768791	-87.18409200000001	582.7103969999999	1407.906609	-169.977042	990.160132	1467.261754	-579.998092	998.1653240000001	1395.808516	-569.6627109999999	909.682739	1381.299126	-606.982233	928.764999	1217.911079	-653.337	860.910636	1205.322169	-594.563342	650.223731	1323.129027	-72.71158699999999	747.417579	1179.480474	-139.226772	712.9473860000001	1170.295674	-75.79106400000001	1008.231822	1241.812461	-597.912747	1083.451866	1303.179184	-443.100355	1116.153713	1243.075543	-467.707588	1087.129323	311.16259	-299.762848	
172	2.558333	920.882083	1083.953425	-467.790842	921.667547	1100.544414	-211.882816	745.674586	1135.823445	-372.291317	745.492082	1132.840294	-288.314844	901.34537	932.589367	-155.070455	1000.44657	855.052559	-165.26619	984.034656	727.549609	-203.158292	785.018342	890.6399740000001	-511.775783	789.973567	757.829793	-497.291865	684.011245	677.946944	-468.430068	1125.793577	472.8455	-290.227139	1098.524046	402.622805	-225.912379	619.622576	442.25072	-407.100944	538.164071	391.689486	-451.991964	492.455091	285.923698	-386.291604	986.627495	153.141151	-323.106563	1218.909784	136.403493	-340.559225	1152.762374	97.928658	-253.89726	333.7012	254.314792	-364.54147	477.23388	72.707595	-334.794896	403.717655	92.363108	-421.949741	989.170133	1563.358516	-505.666561	894.352203	1588.008027	-189.072574	979.752187	1516.485659	-294.964981	867.609791	1598.892936	-369.209791	810.825623	1538.063805	-117.960598	762.269459	1460.204782	-118.010279	696.309944	1504.85413	-127.827785	585.214774	1415.431234	-90.423337	583.3968180000001	1411.579515	-173.117027	991.496651	1472.295108	-578.885811	999.738622	1400.631159	-568.657959	911.979747	1386.783244	-606.956682	930.0808500000001	1223.086305	-654.017794	861.045283	1210.886937	-596.190737	648.513656	1327.986544	-74.40286500000001	747.103382	1183.863314	-138.597546	711.74821	1174.348348	-75.74525800000001	1008.671888	1246.9681	-597.460687	1081.901632	1308.920004	-441.965545	1114.592396	1248.212275	-465.618167	1104.631076	306.649533	-300.667776	
173	2.566667	924.742452	1085.746647	-468.421978	923.488778	1101.474803	-212.873907	748.51842	1138.282349	-373.43857	749.1075530000001	1134.300645	-289.751002	901.466132	932.130108	-155.778716	999.404239	852.773985	-165.125408	980.470176	725.234717	-204.127935	785.57173	894.442042	-512.688779	787.82949	761.310014	-497.889561	680.872617	683.563385	-467.532268	1129.34929	470.001595	-290.653453	1106.837795	398.042283	-226.421315	612.3339580000001	448.301948	-407.455881	529.686281	399.502079	-452.026391	483.230272	293.309377	-387.150051	1014.238407	140.053557	-323.745979	1247.003969	143.313766	-342.762615	1185.198039	98.443617	-256.442644	327.898647	267.924177	-365.704205	459.055922	76.796587	-336.896383	385.811644	100.928901	-422.378856	989.690503	1566.678807	-503.859914	894.1750510000001	1590.00015	-188.497347	980.115769	1519.058848	-293.562019	868.353561	1600.554767	-367.945267	810.151876	1541.28076	-118.253665	761.66497	1463.486416	-117.755916	695.969534	1507.724938	-130.759449	584.330749	1418.537669	-92.723062	584.305306	1413.718997	-175.238082	992.374183	1476.656444	-578.016194	1000.982867	1404.732101	-567.946151	913.544591	1391.39578	-606.664762	930.995644	1227.651343	-654.722948	860.9915999999999	1215.726497	-597.860466	647.608537	1331.454558	-75.363332	747.749468	1187.233179	-137.623341	711.69576	1177.235239	-75.337765	1008.89239	1251.229306	-597.262051	1080.324236	1313.39872	-440.984669	1112.93207	1252.071332	-463.764066	1120.338992	302.762996	-301.35788	
